<svg xmlns="http://www.w3.org/2000/svg" width="33.472" height="38.169" viewBox="0 0 33.472 38.169">
  <g id="Grupo_181" data-name="Grupo 181" transform="translate(0 0)">
    <g id="Grupo_41" data-name="Grupo 41" transform="translate(0 0)">
      <g id="Grupo_40" data-name="Grupo 40" transform="translate(0)">
        <g id="Grupo_39" data-name="Grupo 39">
          <g id="Grupo_38" data-name="Grupo 38">
            <g id="Grupo_35" data-name="Grupo 35" transform="translate(7.31)">
              <g id="Grupo_34" data-name="Grupo 34">
                <path id="Caminho_13" data-name="Caminho 13" d="M303.028-22.566a9.28,9.28,0,0,1-1.593-.137,9.436,9.436,0,0,1-7.7-10.877,9.426,9.426,0,0,1,10.877-7.7,9.435,9.435,0,0,1,7.7,10.877h0A9.441,9.441,0,0,1,303.028-22.566Zm-.007-15.83a6.414,6.414,0,0,0-6.31,5.326,6.413,6.413,0,0,0,5.233,7.391,6.415,6.415,0,0,0,7.392-5.233h0A6.412,6.412,0,0,0,304.1-38.3,6.492,6.492,0,0,0,303.021-38.4Zm7.8,7.738h0Z" transform="translate(-293.598 41.419)" fill="#3d3dff"/>
              </g>
            </g>
            <g id="Grupo_37" data-name="Grupo 37" transform="translate(0 17.466)">
              <g id="Grupo_36" data-name="Grupo 36">
                <path id="Caminho_14" data-name="Caminho 14" d="M319.12-5.332a1.51,1.51,0,0,1-1.51-1.511V-17.088a5.932,5.932,0,0,0-5.926-5.925H296.1a5.931,5.931,0,0,0-5.924,5.925V-6.843a1.51,1.51,0,0,1-1.51,1.511,1.51,1.51,0,0,1-1.511-1.511V-17.088a8.956,8.956,0,0,1,8.945-8.947h15.58a8.957,8.957,0,0,1,8.947,8.947V-6.843A1.511,1.511,0,0,1,319.12-5.332Z" transform="translate(-287.159 26.035)" fill="#3d3dff"/>
              </g>
            </g>
          </g>
        </g>
      </g>
    </g>
  </g>
</svg>
